<svg width="474" height="490" viewBox="0 0 474 490" fill="none" xmlns="http://www.w3.org/2000/svg">
    <path d="M312.542 210.7L437.559 210.7V52.528L312.542 52.528V210.7Z" fill="#E6E6E6"/>
    <path opacity="0.2" d="M317.864 85.6683C317.864 85.6683 340.719 83.496 341.241 103.129C341.241 103.129 339.609 138.67 354.513 155.216C369.418 171.761 406.753 134.685 417.152 210.749H380.291L329.683 171.337L315.187 116.832L317.864 85.6683Z" fill="#A5A5A5"/>
    <path d="M396.746 141.724C409.901 141.724 420.564 131.055 420.564 117.894C420.564 104.733 409.901 94.0637 396.746 94.0637C383.592 94.0637 372.928 104.733 372.928 117.894C372.928 131.055 383.592 141.724 396.746 141.724Z" fill="white"/>
    <path d="M386.266 115.558L392.763 125.603L405.235 110.168" stroke="#A5A5A5" stroke-width="4" stroke-linecap="round" stroke-linejoin="round"/>
    <path opacity="0.4" d="M370.61 79.1513H418.197V67.4893H370.61V79.1513Z" fill="#A5A5A5"/>
    <path d="M170.498 52.5443H45.4812V210.716H170.498V52.5443Z" fill="#E6E6E6"/>
    <path opacity="0.2" d="M165.16 85.701C165.16 85.701 142.305 83.5287 141.799 103.145C141.799 103.145 143.431 138.703 128.526 155.232C113.622 171.761 76.2865 134.717 65.8875 210.765H102.749L153.357 171.369L167.935 116.849L165.16 85.701Z" fill="#A5A5A5"/>
    <path d="M195.247 152.994C195.247 152.994 214.722 176.09 222.885 189.973C231.047 203.856 259.518 207.319 278.161 172.317C289.23 151.524 291.891 140.467 301.212 147.131C310.534 153.795 289.23 181.986 289.23 181.986C289.23 181.986 279.794 246.911 195.247 227.033C85.3958 201.21 195.247 152.994 195.247 152.994Z" fill="#D88B7C"/>
    <path opacity="0.45" d="M234.851 458.787C352.321 458.787 447.55 445.09 447.55 428.195C447.55 411.299 352.321 397.602 234.851 397.602C117.381 397.602 22.1528 411.299 22.1528 428.195C22.1528 445.09 117.381 458.787 234.851 458.787Z" fill="#E6E6E6"/>
    <path d="M363.28 158.433C373.255 196 386.576 293.445 250.752 281.864V268.389C250.752 268.389 312.787 258.998 320.949 232.048C327.871 209.181 307.334 148.944 337.274 142.067C348.783 139.454 360.227 147 363.28 158.433Z" fill="#51A7E6"/>
    <path opacity="0.08" d="M363.28 158.433C373.255 196 386.576 293.445 250.752 281.864V268.389C250.752 268.389 312.787 258.998 320.949 232.048C327.871 209.181 307.334 148.944 337.274 142.067C348.783 139.454 360.227 147 363.28 158.433Z" fill="black"/>
    <path d="M187.525 95.207C187.525 95.207 188.619 107.767 186.513 116.114C186.305 116.921 185.941 117.679 185.441 118.344C184.94 119.01 184.314 119.571 183.596 119.994C182.879 120.417 182.086 120.695 181.261 120.811C180.436 120.927 179.597 120.879 178.791 120.671C174.596 119.544 169.257 116.816 167.87 110.152L164.099 99.1434C163.575 96.8609 163.772 94.4719 164.664 92.3067C165.556 90.1415 167.099 88.307 169.078 87.0567C176.097 81.9444 187.231 87.5304 187.525 95.207Z" fill="#F4A28C"/>
    <path d="M165.96 102.051L151.61 133.705L170.286 147.572L174.008 117.796L165.96 102.051Z" fill="#F4A28C"/>
    <path d="M184.391 95.7297C180.5 95.881 176.605 95.5796 172.784 94.8314C173.908 96.5439 174.507 98.5481 174.507 100.597C174.507 102.646 173.908 104.65 172.784 106.363C171.725 108.043 170.115 109.303 168.229 109.926C166.344 110.548 164.301 110.496 162.45 109.776L162.662 93.59C162.614 91.2713 163.195 88.9829 164.346 86.9692C165.496 84.9555 167.171 83.2921 169.192 82.1567C170.935 81.161 172.74 80.2772 174.596 79.5107C179.248 77.6487 186.023 80.752 190.251 77.5997C190.673 77.2862 191.168 77.0873 191.689 77.0225C192.21 76.9577 192.739 77.0292 193.224 77.2299C193.709 77.4307 194.134 77.7538 194.457 78.1679C194.78 78.582 194.99 79.0727 195.067 79.5923C195.785 84.4923 194.92 92.267 188.26 94.962C187.022 95.4317 185.714 95.6912 184.391 95.7297V95.7297Z" fill="#24285B"/>
    <path d="M174.122 105.987C174.122 105.987 174.122 101.087 170.4 101.512C166.678 101.936 166.841 108.894 171.788 109.548L174.122 105.987Z" fill="#F4A28C"/>
    <path d="M187.786 103.145L191.296 108.045C191.498 108.32 191.627 108.641 191.671 108.979C191.715 109.317 191.672 109.661 191.546 109.978C191.42 110.295 191.216 110.575 190.952 110.791C190.689 111.007 190.374 111.153 190.039 111.214L185.223 112.128L187.786 103.145Z" fill="#F4A28C"/>
    <path opacity="0.31" d="M173.91 118.645C171.495 117.222 169.513 115.167 168.18 112.7C168.18 112.7 163.707 120.556 172.849 127.139L173.91 118.645Z" fill="#CE8172"/>
    <path d="M293.409 99.1597C293.409 99.1597 292.315 111.72 294.421 120.066C294.626 120.874 294.99 121.634 295.49 122.301C295.99 122.968 296.616 123.529 297.334 123.953C298.052 124.376 298.846 124.653 299.671 124.769C300.497 124.884 301.337 124.834 302.143 124.623C306.338 123.496 311.66 120.769 313.064 114.105L316.835 103.112C317.354 100.83 317.154 98.4426 316.263 96.2785C315.371 94.1143 313.832 92.2794 311.856 91.0257C304.755 85.9133 293.637 91.4667 293.409 99.1597Z" fill="#F4A28C"/>
    <path d="M314.958 106.003L329.308 137.657L310.632 151.524L306.893 121.749L314.958 106.003Z" fill="#F4A28C"/>
    <path d="M306.779 109.956C306.779 109.956 306.877 105.056 310.518 105.464C314.158 105.873 314.076 112.863 309.114 113.517L306.779 109.956Z" fill="#F4A28C"/>
    <path d="M293.115 107.114L289.622 112.014C289.419 112.289 289.29 112.61 289.246 112.948C289.203 113.286 289.246 113.63 289.371 113.947C289.497 114.264 289.702 114.544 289.965 114.76C290.229 114.976 290.543 115.122 290.879 115.183L295.694 116.081L293.115 107.114Z" fill="#F4A28C"/>
    <path opacity="0.31" d="M307.008 122.598C309.415 121.179 311.394 119.136 312.738 116.685C312.738 116.685 317.211 124.542 308.069 131.124L307.008 122.598Z" fill="#CE8172"/>
    <path d="M221.693 188.013L208.747 229.614L182.383 225.4L194.153 151.524C194.153 151.524 213.645 172.66 221.693 188.013Z" fill="#51A7E6"/>
    <path opacity="0.08" d="M221.693 188.013L208.747 229.614L182.383 225.4L194.153 151.524C194.153 151.524 213.645 172.66 221.693 188.013Z" fill="black"/>
    <path d="M386.298 283.432L372.357 418.64H357.942L346.857 312.636L321.423 293.298L386.298 283.432Z" fill="#24285B"/>
    <path d="M321.423 293.298V418.738H338.335L353.86 308.243L321.423 293.298Z" fill="#24285B"/>
    <path d="M186.529 143.423C177.929 136.749 167.391 133.057 156.508 132.904C138.893 132.904 109.377 146.118 103.223 190.349C97.0682 234.579 103.402 283.449 103.402 283.449L168.278 293.249C168.278 293.249 239.765 189.957 186.529 143.423Z" fill="#51A7E6"/>
    <path opacity="0.08" d="M174.122 283.694L168.245 293.298L103.37 283.498C103.37 283.498 90.3097 188.16 118.274 156.718L140.476 190.626L174.122 283.694Z" fill="black"/>
    <path d="M301.212 147.131C309.744 140.312 320.269 136.47 331.185 136.187C348.816 136.008 378.527 148.715 385.319 192.831C392.11 236.948 386.494 285.931 386.494 285.931L321.749 296.744C321.749 296.744 248.695 194.367 301.212 147.131Z" fill="#65AFE4"/>
    <path d="M115.418 168.625C108.349 206.796 102.553 305.025 237.071 283.057L236.043 269.614C236.043 269.614 173.469 265.025 163.266 238.777C154.614 216.547 170.465 154.856 140.183 150.267C128.429 148.633 117.589 156.963 115.418 168.625Z" fill="#F4A28C"/>
    <path d="M112.267 169.001C109.324 182.772 109.513 197.029 112.822 210.716L160.164 210.308C160.164 210.308 167.935 161.7 147.365 149.221C147.365 149.221 142.468 144.975 132.673 147.457C127.613 148.81 123.028 151.539 119.425 155.342C115.823 159.146 113.345 163.874 112.267 169.001V169.001Z" fill="#51A7E6"/>
    <path opacity="0.2" d="M112.267 169.001C109.324 182.772 109.513 197.029 112.822 210.716L160.164 210.308C160.164 210.308 167.935 161.7 147.365 149.221C147.365 149.221 142.468 144.975 132.673 147.457C127.613 148.81 123.028 151.539 119.425 155.342C115.823 159.146 113.345 163.874 112.267 169.001V169.001Z" fill="white"/>
    <path d="M162.94 418.754C162.94 418.754 164.36 425.402 170.025 426.659C175.689 427.917 176.424 433.715 171.086 434.483C165.747 435.251 153.357 426.839 153.357 426.839L154.842 418.672L162.94 418.754Z" fill="#434343"/>
    <path d="M84.2531 418.754C84.2531 418.754 82.8165 425.402 77.168 426.659C71.5196 427.917 70.7523 433.715 76.1069 434.483C81.4615 435.251 93.8358 426.839 93.8358 426.839L92.3503 418.672L84.2531 418.754Z" fill="#434343"/>
    <path opacity="0.08" d="M324.655 176.171C324.655 176.171 317.325 202.403 341.323 222.411C365.32 242.419 361.06 277.732 315.023 286.421L321.749 296.728L390.967 284.902L394.232 236.441L369.418 186.478L324.655 176.171Z" fill="black"/>
    <path d="M237.898 265.395L229.223 266.063L230.642 284.514L239.317 283.847L237.898 265.395Z" fill="#24285B"/>
    <path d="M270.676 264L262 264.668L263.419 283.119L272.095 282.451L270.676 264Z" fill="#FFD200"/>
    <path d="M286.863 90.9277C286.863 90.9277 283.696 99.764 295.694 99.8293C307.693 99.8947 302.665 110.985 312.101 111.573C321.537 112.161 323.186 108.306 322.778 101.25C322.37 94.1943 323.349 80.7193 313.064 78.2693C302.78 75.8193 285.23 73.3693 286.863 90.9277Z" fill="#24285B"/>
    <path d="M322.533 168.658C321.586 152.619 338.45 141.463 353.175 147.849C374.054 156.898 408.353 173.983 414.361 210.047C423.846 266.985 396.403 288.12 365.206 312.636L358.236 298.345C358.236 298.345 396.256 257.234 374.561 219.455C357.86 190.545 323.855 190.692 322.533 168.658Z" fill="#51A7E6"/>
    <path opacity="0.2" d="M322.533 168.658C321.586 152.619 338.45 141.463 353.175 147.849C374.054 156.898 408.353 173.983 414.361 210.047C423.846 266.985 396.403 288.12 365.206 312.636L358.236 298.345C358.236 298.345 396.256 257.234 374.561 219.455C357.86 190.545 323.855 190.692 322.533 168.658Z" fill="white"/>
    <path d="M359.052 300.011L350.677 304.078L357.942 316.605L365.206 312.636L359.052 300.011Z" fill="#F4A28C"/>
    <path d="M168.245 293.298V418.738H151.332L135.807 308.243L168.245 293.298Z" fill="#24285B"/>
    <path d="M263.289 265.923L264.922 282.844C264.922 282.844 251.862 288.708 244.173 284.249C236.484 279.79 246.295 260.68 263.289 265.923Z" fill="#D88B7C"/>
    <path d="M325.422 418.754C325.422 418.754 324.002 425.402 318.337 426.659C312.672 427.917 311.938 433.715 317.276 434.483C322.614 435.251 335.005 426.839 335.005 426.839L333.536 418.672L325.422 418.754Z" fill="#434343"/>
    <path d="M361.141 418.754C361.141 418.754 359.705 425.402 354.056 426.659C348.408 427.917 347.641 433.715 352.995 434.483C358.35 435.251 370.724 426.839 370.724 426.839L369.239 418.672L361.141 418.754Z" fill="#434343"/>
    <path d="M103.353 283.432L79.8126 418.64L97.7701 418.738L136.428 312.636L168.245 293.298L103.353 283.432Z" fill="#24285B"/>
    <path d="M238.214 269.353C238.214 269.353 243.373 263.44 249.005 266.086C254.637 268.732 250.311 268.896 255.208 271.64C260.106 274.384 267.24 286.993 239.324 283.824L238.214 269.353Z" fill="#F4A28C"/>
    <path d="M86.2937 141.741C99.4481 141.741 110.112 131.071 110.112 117.91C110.112 104.749 99.4481 94.08 86.2937 94.08C73.1393 94.08 62.4755 104.749 62.4755 117.91C62.4755 131.071 73.1393 141.741 86.2937 141.741Z" fill="white"/>
    <path d="M77.8047 115.591L84.2857 125.636L96.758 110.201" stroke="#A5A5A5" stroke-width="4" stroke-linecap="round" stroke-linejoin="round"/>
    <path opacity="0.4" d="M112.43 67.522H64.8426V79.184H112.43V67.522Z" fill="#A5A5A5"/>
</svg>
